<?xml version="1.0" encoding="UTF-8"?>
<svg width="220" height="70" viewBox="0 0 220 70" xmlns="http://www.w3.org/2000/svg" role="img" aria-labelledby="atlas-logo-title">
  <title id="atlas-logo-title">Atlas Imóveis</title>
  <defs>
    <linearGradient id="atlas-gradient" x1="0" x2="1" y1="0" y2="1">
      <stop offset="0%" stop-color="#ffb500" />
      <stop offset="100%" stop-color="#ff6b35" />
    </linearGradient>
  </defs>
  <g transform="translate(10,10)">
    <path d="M0 30 L20 10 L40 30 V50 H0z" fill="none" stroke="#1c1c1c" stroke-width="3" stroke-linejoin="round" />
    <path d="M12 30 V40" stroke="#ff6b35" stroke-width="3" stroke-linecap="round" />
    <path d="M12 44 L12 52" stroke="#1c1c1c" stroke-width="3" stroke-linecap="round" />
    <path d="M6 48 L18 48" stroke="#1c1c1c" stroke-width="3" stroke-linecap="round" />
    <path d="M12 52 C5 58 5 64 18 64 C31 64 31 58 24 52" stroke="#1c1c1c" stroke-width="3" fill="none" stroke-linecap="round" />
    <circle cx="12" cy="34" r="4" fill="#ff6b35" />
    <path d="M22 46 L28 46" stroke="#ffb500" stroke-width="3" stroke-linecap="round" />
    <path d="M28 46 L25 42" stroke="#ffb500" stroke-width="3" stroke-linecap="round" />
    <path d="M34 46 L30 42" stroke="#ff6b35" stroke-width="3" stroke-linecap="round" />
  </g>
  <text x="60" y="32" font-family="Poppins, sans-serif" font-size="20" font-weight="700" fill="#1c1c1c">atlas</text>
  <text x="60" y="55" font-family="Poppins, sans-serif" font-size="16" fill="#4b4b4b">imóveis</text>
</svg>

